# xmcd
# 
# Track frame offsets:
#     150
#     16185
#     31421
#     46497
#     64330
#     79522
#     96689
#     115719
#     133721
#     152241
#     171070
#     189289
# 
# Disc length: 2811
# 
# Revision: 1
# Processed by: cddbd v1.5.2PL0 Copyright (c) Steve Scherf et al.
# Submitted via: fre:ac v1.0.31
# 
DISCID=990af90c
DTITLE=Dolly Parton - Blue Smoke
DYEAR=2014
DGENRE=Country
TTITLE0=Blue Smoke
TTITLE1=Unlikely Angel
TTITLE2=Don't Think Twice
TTITLE3=You Can't Make Old Friends
TTITLE4=Home
TTITLE5=Banks of the Old Ohio
TTITLE6=Lay Your Hands on Me
TTITLE7=Miss You - Miss Me
TTITLE8=If I Had Wings
TTITLE9=Lover Du Jour
TTITLE10=From Here to the Moon and Back
TTITLE11=Try
EXTD=
EXTT0=
EXTT1=
EXTT2=
EXTT3=
EXTT4=
EXTT5=
EXTT6=
EXTT7=
EXTT8=
EXTT9=
EXTT10=
EXTT11=
PLAYORDER=
